<svg xmlns="http://www.w3.org/2000/svg" fill="none" viewBox="0 0 40 40"><path stroke="currentColor" stroke-linecap="round" stroke-linejoin="round" stroke-width="1.5" d="M12.3 8.6c-3.8.967-6.633 4.3-6.917 8.25L4.6 27.018c-.017.167.05.35.167.484.116.133.283.2.483.2h2.767"></path><path stroke="currentColor" stroke-linecap="round" stroke-linejoin="round" stroke-width="1.5" d="M9.718 20v12.217c0 1.766 1.433 3.2 3.216 3.2h7.067M27.7 8.6c3.8.967 6.633 4.3 6.917 8.25l.783 10.167a.662.662 0 0 1-.167.484.617.617 0 0 1-.483.2h-2.767M27.7 8.6c.15-.284.417-.917.384-1.734-.017-.416-.067-1.083-.584-1.633-.266-.283-.8-.65-1.733-.65H14.234c-.917 0-1.45.367-1.733.65-.384.417-.584.983-.584 1.633 0 .534.133 1.134.383 1.734 1.55 2.8 4.5 4.55 7.7 4.55s6.167-1.75 7.7-4.55Z"></path><path stroke="currentColor" stroke-linecap="round" stroke-linejoin="round" stroke-width="1.5" d="M30.283 20v12.217c0 1.766-1.433 3.2-3.216 3.2H20M17.434 13.15v2.883M22.566 13.15v5.133"></path></svg>