<svg xmlns="http://www.w3.org/2000/svg" fill="none" viewBox="0 0 40 40"><path stroke="currentColor" stroke-linecap="round" stroke-width="1.5" d="M14 11V9.5A4.5 4.5 0 0 1 18.5 5h3A4.5 4.5 0 0 1 26 9.5V11M5 17.521s4.677 3.116 11.966 3.845M35 17.521s-4.677 3.116-11.966 3.845M11 35h18a6 6 0 0 0 6-6V17a6 6 0 0 0-6-6H11a6 6 0 0 0-6 6v12a6 6 0 0 0 6 6Z"></path><path stroke="currentColor" stroke-linecap="round" stroke-linejoin="round" stroke-miterlimit="10" stroke-width="1.5" d="M23.333 20.266v1.7c0 1.817-.016 3.3-3.333 3.3-3.3 0-3.333-1.466-3.333-3.283v-1.717c0-1.666 0-1.666 1.666-1.666h3.334c1.666 0 1.666 0 1.666 1.666Z"></path></svg>