<svg xmlns="http://www.w3.org/2000/svg" viewBox="0 0 24 24"><path fill="currentColor" d="M16.032 3A4.978 4.978 0 0 1 21 7.968v8.064A4.978 4.978 0 0 1 16.032 21H7.968A4.978 4.978 0 0 1 3 16.032V7.968A4.978 4.978 0 0 1 7.968 3h8.064zm3.384 13.032V7.968a3.38 3.38 0 0 0-3.384-3.384H7.968c-1.848 0-3.36 1.512-3.36 3.384v8.064a3.37 3.37 0 0 0 3.36 3.36h8.064c1.872 0 3.384-1.512 3.384-3.36zM12 7.368c2.568 0 4.632 2.064 4.632 4.632S14.568 16.632 12 16.632 7.368 14.568 7.368 12A4.62 4.62 0 0 1 12 7.368zm0 7.68c1.68 0 3.048-1.368 3.048-3.048S13.68 8.952 12 8.952 8.952 10.32 8.952 12A3.052 3.052 0 0 0 12 15.048zM16.824 6c.312 0 .624.12.84.36.216.216.336.504.336.816s-.12.6-.336.84a1.185 1.185 0 0 1-1.656 0c-.216-.24-.336-.528-.336-.84s.12-.6.336-.816c.216-.24.528-.36.816-.36z"></path></svg>