<svg xmlns="http://www.w3.org/2000/svg" viewBox="0 0 24 24"><path fill="currentColor" d="M7.08 8.88V21H3.216V8.88H7.08zm.24-3.792c0 .6-.168 1.128-.576 1.512s-.96.6-1.608.6c-.648 0-1.2-.216-1.56-.6C3.168 6.216 3 5.688 3 5.088s.168-1.104.576-1.488c.408-.384.936-.6 1.608-.6s1.152.216 1.56.6c.36.384.576.888.576 1.488zM21 14.016V21h-3.864v-6.504c0-.864-.12-1.512-.456-2.016-.312-.48-.816-.744-1.464-.744-.504 0-.912.168-1.248.432-.36.312-.6.648-.768 1.08-.096.216-.12.552-.12.984V21H9.216c.024-3.264.024-5.904.024-7.92V9.432l-.024-.552h3.864v1.752c.144-.264.288-.528.432-.696.168-.216.408-.432.696-.648a3.66 3.66 0 0 1 1.008-.552c.408-.12.864-.168 1.344-.168 1.368 0 2.424.48 3.24 1.368.84.936 1.2 2.328 1.2 4.08z"></path></svg>