<svg xmlns="http://www.w3.org/2000/svg" viewBox="0 0 24 24"><path fill="currentColor" d="M21 6.72a7.107 7.107 0 0 1-2.112.6 3.774 3.774 0 0 0 1.608-2.04 7.56 7.56 0 0 1-2.328.888 3.692 3.692 0 0 0-2.712-1.176 3.698 3.698 0 0 0-3.696 3.696c0 .288.048.576.096.84-3.048-.144-5.784-1.632-7.608-3.864a3.83 3.83 0 0 0-.504 1.872c0 1.272.672 2.4 1.656 3.072a3.684 3.684 0 0 1-1.68-.48v.048c0 1.8 1.272 3.288 2.976 3.624a3.427 3.427 0 0 1-1.68.072 3.754 3.754 0 0 0 3.456 2.568A7.447 7.447 0 0 1 3.888 18c-.312 0-.6 0-.888-.048a10.398 10.398 0 0 0 5.664 1.68c6.792 0 10.512-5.64 10.512-10.512l-.024-.48A7.808 7.808 0 0 0 21 6.72z"></path></svg>